<svg width="8" height="9" viewBox="0 0 8 9" fill="none" xmlns="http://www.w3.org/2000/svg">
<path d="M6.5 4.40625C6.5 5.88026 5.36066 7.03809 4 7.03809V8.03809C5.95304 8.03809 7.5 6.39157 7.5 4.40625H6.5ZM4 7.03809C2.63934 7.03809 1.5 5.88026 1.5 4.40625H0.5C0.5 6.39157 2.04696 8.03809 4 8.03809V7.03809ZM1.5 4.40625C1.5 2.93224 2.63934 1.77441 4 1.77441V0.774414C2.04696 0.774414 0.5 2.42093 0.5 4.40625H1.5ZM4 1.77441C5.36066 1.77441 6.5 2.93224 6.5 4.40625H7.5C7.5 2.42093 5.95304 0.774414 4 0.774414V1.77441Z" fill="#E8C303"/>
</svg>
